<svg width="85" height="85" viewBox="0 0 85 85" fill="none" xmlns="http://www.w3.org/2000/svg">
<path d="M85 48.5714C85 65.9289 67.0158 80 43.1939 80C19.3721 80 0.0606694 65.9289 0.0606694 48.5714C-1.26651 30.7143 19.3721 17.1428 43.1939 17.1428C65.0923 16.4285 85 31.2139 85 48.5714Z" fill="url(#paint0_linear_10_31)"/>
<path d="M71.7282 27.8571C71.7282 40.8753 58.6559 51.4286 42.5304 51.4286C26.4048 51.4286 13.3325 40.8753 13.3325 27.8571C15.3232 15 19.9683 7.14286 39.2124 5C55.338 5 71.7282 14.839 71.7282 27.8571Z" fill="#A6FF96"/>
<path d="M51 39C54.282 39.3282 57.2458 40.8491 60.6152 40.8491" stroke="black" stroke-width="2" stroke-linecap="round"/>
<path d="M29 36C31.7307 36.355 34.1966 38 37 38" stroke="black" stroke-width="2" stroke-linecap="round"/>
<path d="M43.1466 45C43.1351 45.0923 42.8621 45.4239 43.0914 45.4894C43.3522 45.5639 43.2707 45.1457 43.2707 45" stroke="black" stroke-width="2" stroke-linecap="round"/>
<path d="M58 28.3094C58.8624 28.3094 59.5589 28 60.3982 28C61.1695 28 60.1028 29.3292 60.0028 29.7793C59.9581 29.9803 59.0813 31.5403 59.3925 31.5586C60.1868 31.6053 61.0051 31.4039 61.7133 31.4039" stroke="black" stroke-width="2" stroke-linecap="round"/>
<path d="M67.7107 25.8516C66.8614 25.7018 66.1217 25.8856 65.2952 25.7399C64.5356 25.6059 65.8169 24.4822 65.9935 24.0563C66.0724 23.8661 67.2069 22.482 66.9035 22.41C66.1294 22.226 65.2885 22.2823 64.5911 22.1593" stroke="black" stroke-width="2" stroke-linecap="round"/>
<path d="M46.9669 53.7947C46.9669 54.9786 47.0483 56.1112 47.0483 57.2968" stroke="white" stroke-width="2" stroke-linecap="round"/>
<path d="M41.1195 51.1006C40.3452 51.1006 39.5795 51.0145 38.8025 51.0145C38.3701 51.0145 37.9378 51.0145 37.5055 51.0145C37.3164 51.0145 36.9993 50.9762 36.8191 51.0241C36.1511 51.2014 36 51.7097 36 52.1239C36 52.5689 36.1257 52.8225 36.7888 53.0372C37.4386 53.2476 38.0429 53.4403 38.7494 53.5727C39.6744 53.7461 40.6699 53.7901 41.6277 53.8764C42.4033 53.9462 43.2428 53.984 44.0244 53.984C44.6916 53.984 45.539 54.0558 46.1746 53.8955C46.5796 53.7933 46.9899 53.6976 46.9899 53.3815C46.9899 53.1454 47.0616 52.9078 46.823 52.7144C46.4686 52.4271 46.209 52.1326 45.746 51.8991C45.2368 51.6423 44.6333 51.4957 44.0547 51.3133C43.3834 51.1017 42.4861 51.0575 41.7339 51.0575" stroke="black" stroke-width="1.5" stroke-linecap="round"/>
<defs>
<linearGradient id="paint0_linear_10_31" x1="32.5" y1="71.5" x2="35.5" y2="85.5" gradientUnits="userSpaceOnUse">
<stop stop-color="#A6FF96"/>
<stop offset="1" stop-color="#BEF7B4"/>
</linearGradient>
</defs>
</svg>
